OpenSim_Sub11_CSPreOp_RCS.mot
version=1
nRows=47
nColumns=11
inDegrees=no
endheader
time	Top_Thigh	Med_Thigh	Bot_Thigh	Top_Shank	2nd_Top_Shank	2nd_Bot_Shank	Bot_Shank	BNOx	BNOy	BNOZ
18.50000000	1913.69727711	1725.22417207	1728.46155173	1349.43797582	1462.92312708	1295.37859923	1214.57833357	15.54125555	-73.29798179	-155.15776503
18.51000000	1912.14334578	1723.70907876	1726.74365961	1348.21834968	1463.55827269	1296.22697008	1215.80851110	15.69584483	-73.19211956	-156.43489773
18.52000000	1910.83300560	1722.39363778	1725.29761461	1347.16623378	1464.31733924	1296.92577210	1216.90788837	15.87159452	-73.08805031	-157.59003461
18.53000000	1909.74815279	1721.25543080	1724.09270295	1346.29055454	1465.18219859	1297.49083596	1217.88432525	16.06561975	-72.98580991	-158.62440126
18.54000000	1908.87068358	1720.27203950	1723.09821084	1345.60023839	1466.13472264	1297.93799234	1218.74568160	16.27503561	-72.88543422	-159.53922328
18.55000000	1908.18249419	1719.42104552	1722.28342451	1345.10421175	1467.15678327	1298.28307193	1219.49981730	16.49695723	-72.78695912	-160.33572628
18.56000000	1907.66548086	1718.68003055	1721.61763016	1344.81140106	1468.23025235	1298.54190539	1220.15459221	16.72849972	-72.69042047	-161.01513586
18.57000000	1907.30153981	1718.02657624	1721.07011401	1344.73073274	1469.33700177	1298.73032342	1220.71786620	16.96677818	-72.59585413	-161.57867763
18.58000000	1907.07256727	1717.43826426	1720.61016229	1344.87113322	1470.45890341	1298.86415668	1221.19749914	17.20890774	-72.50329599	-162.02757718
18.59000000	1906.96045947	1716.89267628	1720.20706121	1345.24152892	1471.57782915	1298.95923587	1221.60135089	17.45200351	-72.41278191	-162.36306013
18.60000000	1906.94711263	1716.36739396	1719.83009698	1345.85084628	1472.67565088	1299.03139166	1221.93728133	17.69318059	-72.32434775	-162.58635208
18.61000000	1907.01442299	1715.83999898	1719.44855582	1346.70801172	1473.73424046	1299.09645472	1222.21315032	17.92955410	-72.23802938	-162.69867863
18.62000000	1907.14428677	1715.28807298	1719.03172396	1347.82195167	1474.73546980	1299.17025575	1222.43681772	18.15823916	-72.15386268	-162.70126538
18.63000000	1907.31860019	1714.68919765	1718.54888760	1349.20159256	1475.66121076	1299.26862542	1222.61614341	18.37635088	-72.07188351	-162.59533794
18.64000000	1907.51925949	1714.02095464	1717.96933297	1350.85586081	1476.49333522	1299.40739441	1222.75898726	18.58100437	-71.99212774	-162.38212191
18.65000000	1907.72816089	1713.26092562	1717.26234627	1352.79368285	1477.21371508	1299.60239340	1222.87320912	18.76931474	-71.91463124	-162.06284289
18.66000000	1907.92720062	1712.38669227	1716.39721374	1355.02398511	1477.80422221	1299.86945307	1222.96666888	18.93839711	-71.83942987	-161.63872649
18.67000000	1908.09730296	1711.37992279	1715.34974206	1357.55259766	1478.24886587	1300.21993517	1223.04600665	19.08586467	-71.76660102	-161.12678234
18.68000000	1908.20484887	1710.28343237	1714.19330368	1360.33901984	1478.56363685	1300.59833306	1223.09961165	19.21678352	-71.69684306	-160.78019586
18.69000000	1908.20502388	1709.18710726	1713.07637736	1363.30708550	1478.78914536	1300.89766467	1223.10182347	19.34195695	-71.63133246	-161.03396107
18.70000000	1908.05272550	1708.18204452	1712.14937383	1366.37971106	1478.96663493	1301.00962381	1223.02662034	19.47233588	-71.57125796	-162.32774874
18.71000000	1907.70928351	1707.35034304	1711.54734949	1369.48403299	1479.13490852	1300.83839794	1222.85114549	19.61779392	-71.51767619	-165.03665275
18.72000000	1907.18356605	1706.70759951	1711.29188262	1372.57837666	1479.31473181	1300.38051047	1222.57593380	19.78024297	-71.47066728	-169.05850342
18.73000000	1906.50574807	1706.23960412	1711.35369023	1375.63504638	1479.51878615	1299.67387002	1222.21200433	19.95802644	-71.42987370	-174.07722014
18.74000000	1905.70610502	1705.93200648	1711.70324943	1378.62641242	1479.75971474	1298.75658045	1221.77042562	20.14947094	-71.39493586	-179.77571329
18.75000000	1904.81491238	1705.77045617	1712.31103734	1381.52484501	1480.05016077	1297.66674563	1221.26226619	20.35290304	-71.36549417	-185.83689325
18.76000000	1903.86244560	1705.74060281	1713.14753107	1384.30271441	1480.40276746	1296.44246939	1220.69859457	20.56664934	-71.34118901	-191.94367038
18.77000000	1902.87898015	1705.82809600	1714.18320773	1386.93239088	1480.83017801	1295.12185561	1220.09047927	20.78903643	-71.32166081	-197.77895507
18.78000000	1901.89479148	1706.01858533	1715.38854443	1389.38624467	1481.34503561	1293.74300812	1219.44898883	21.01839089	-71.30654996	-203.02565769
18.79000000	1900.94015506	1706.29772041	1716.73401829	1391.63664604	1481.95998347	1292.34403078	1218.78519177	21.25303931	-71.29549687	-207.36668861
18.80000000	1900.04534635	1706.65115083	1718.19010640	1393.65596523	1482.68766479	1290.96302745	1218.11015662	21.49130828	-71.28814194	-210.48495821
18.81000000	1899.24064081	1707.06452621	1719.72728590	1395.41657250	1483.54072278	1289.63810198	1217.43495189	21.73152439	-71.28412559	-212.06337687
18.82000000	1898.55631390	1707.52349613	1721.31603388	1396.89083811	1484.53180064	1288.40735822	1216.77064612	21.97201423	-71.28308820	-211.78485496
18.83000000	1898.02264108	1708.01371020	1722.92682746	1398.05113230	1485.67354156	1287.30890003	1216.12830784	22.21110439	-71.28467019	-209.33230285
18.84000000	1897.66989783	1708.52081802	1724.53014375	1398.86982533	1486.97858876	1286.38083126	1215.51900556	22.44712146	-71.28851196	-204.38863093
18.85000000	1897.52835958	1709.03046920	1726.09645986	1399.31928746	1488.45958543	1285.66125576	1214.95380781	22.67839203	-71.29425391	-196.63674956
18.86000000	1897.62830182	1709.52831332	1727.59625291	1399.37188893	1490.12917477	1285.18827739	1214.44378311	22.90324268	-71.30153646	-185.75956913
18.87000000	1898.00000000	1710.00000000	1729.00000000	1399.00000000	1492.00000000	1285	1214.00000000	23.12000000	-71.31000000	-171.44000000
18.88000000	1898.65907061	1710.43350830	1730.28339723	1398.19091756	1494.07270553	1285.12168858	1213.63203964	23.32774318	-71.31933329	-153.50743952
18.89000000	1899.56249426	1710.82613516	1731.44301665	1396.99164504	1496.29994071	1285.52725268	1213.34353380	23.52856181	-71.32941845	-132.37723292
18.90000000	1900.65259260	1711.17750698	1732.48064927	1395.46411250	1498.62235608	1286.17776296	1213.13662687	23.72529805	-71.34018599	-108.61121237
18.91000000	1901.87168725	1711.48725017	1733.39808611	1393.67025000	1500.98060222	1287.03429010	1213.01346326	23.92079409	-71.35156638	-82.77121005
18.92000000	1903.16209988	1711.75499113	1734.19711822	1391.67198761	1503.31532968	1288.05790479	1212.97618738	24.11789209	-71.36349011	-55.41905817
18.93000000	1904.46615210	1711.98035627	1734.87953660	1389.53125539	1505.56718902	1289.20967768	1213.02694363	24.31943425	-71.37588766	-27.11658889
18.94000000	1905.72616558	1712.16297199	1735.44713228	1387.30998341	1507.67683079	1290.45067947	1213.16787642	24.52826273	-71.38868951	1.57436559
18.95000000	1906.88446193	1712.30246470	1735.90169629	1385.07010173	1509.58490557	1291.74198083	1213.40113016	24.74721971	-71.40182616	30.09197308
18.96000000	1907.88336282	1712.39846080	1736.24501965	1382.87354040	1511.23206391	1293.04465243	1213.72884924	24.97914738	-71.41522809	57.87440141
